<svg id="Layer_1" data-name="Layer 1" xmlns="http://www.w3.org/2000/svg" viewBox="0 0 168.42 231"><defs><style>.cls-1{fill:#875159;}</style></defs><title>Icono 1</title><path class="cls-1" d="M1124.09,990.52l-68.86,101.28-2,2.92-3.76,5.1L1038.33,1115l-12.62-16.83h0l-.08-.11-1.73-2.29-.08-.11L956.48,992.48a2.44,2.44,0,0,1,.69-3.39l17.05-11.43a2.45,2.45,0,0,1,3.4.66l48,74.31V886.46a2.46,2.46,0,0,1,2.45-2.46h20.51a2.46,2.46,0,0,1,2.46,2.46v166.17L1103,976.36a2.46,2.46,0,0,1,3.4-.66l17.05,11.43A2.44,2.44,0,0,1,1124.09,990.52Z" transform="translate(-956.08 -884)"/></svg>