<svg id="Layer_1" data-name="Layer 1" xmlns="http://www.w3.org/2000/svg" viewBox="0 0 112.6 112.6"><defs><style>.cls-1{fill:#875159;}</style></defs><title>Icono 3</title><path class="cls-1" d="M1151.09,1064.7h-72.78a19.93,19.93,0,0,1-19.91-19.91V972a19.94,19.94,0,0,1,19.91-19.92h72.78A19.94,19.94,0,0,1,1171,972v72.77A19.93,19.93,0,0,1,1151.09,1064.7Zm-72.78-106.58a13.92,13.92,0,0,0-13.9,13.9v72.77a13.92,13.92,0,0,0,13.9,13.9h72.78a13.91,13.91,0,0,0,13.89-13.9V972a13.91,13.91,0,0,0-13.89-13.9Z" transform="translate(-1058.4 -952.1)"/><path class="cls-1" d="M1084.15,1023.43a2.53,2.53,0,0,1-2.56-2.56V987.51a2.43,2.43,0,0,1,.74-1.85,2.5,2.5,0,0,1,1.82-.71h11.78a12.67,12.67,0,0,1,5.88,1.3,10,10,0,0,1,4,3.62,9.82,9.82,0,0,1,1.45,5.33,7.66,7.66,0,0,1-1.31,4.36,9.19,9.19,0,0,1-3.57,3.08,9.64,9.64,0,0,1,5.23,3.1,9.07,9.07,0,0,1,2,6.06,11.23,11.23,0,0,1-1.61,6,11.11,11.11,0,0,1-4.46,4.12,13.87,13.87,0,0,1-6.55,1.5Zm2.56-22.67h9.22a7.34,7.34,0,0,0,4.6-1.38,5.74,5.74,0,0,0,0-8.35,7.45,7.45,0,0,0-4.6-1.35h-9.22Zm0,17.94H1097a9.44,9.44,0,0,0,4-.79,6.18,6.18,0,0,0,2.71-2.31,6.86,6.86,0,0,0,1-3.8,5.86,5.86,0,0,0-1-3.5,6.15,6.15,0,0,0-2.71-2.09,10.29,10.29,0,0,0-4-.72h-10.25Z" transform="translate(-1058.4 -952.1)"/><path class="cls-1" d="M1134.31,1023.63a14.81,14.81,0,0,1-7.27-1.75,12.89,12.89,0,0,1-5-4.83,13.74,13.74,0,0,1-1.8-7.07,14.53,14.53,0,0,1,1.7-7.12,12.42,12.42,0,0,1,4.71-4.83,13.4,13.4,0,0,1,6.89-1.75,12.38,12.38,0,0,1,6.61,1.7,11,11,0,0,1,4.21,4.68,15.5,15.5,0,0,1,1.45,6.88,2.05,2.05,0,0,1-.64,1.55,2.23,2.23,0,0,1-1.62.61h-19.86v-3.94h19.71l-2,1.38a10.43,10.43,0,0,0-1-4.41,7.17,7.17,0,0,0-6.85-4.21,9,9,0,0,0-4.8,1.23,7.94,7.94,0,0,0-3,3.38,11,11,0,0,0-1,4.85,9.34,9.34,0,0,0,1.24,4.83,9,9,0,0,0,3.4,3.35,9.88,9.88,0,0,0,5,1.23,9.26,9.26,0,0,0,3.13-.57,9.61,9.61,0,0,0,2.59-1.3,2.83,2.83,0,0,1,1.6-.57,2.16,2.16,0,0,1,1.5.52,2.31,2.31,0,0,1,.89,1.62,1.74,1.74,0,0,1-.79,1.53,13.48,13.48,0,0,1-4.16,2.17A14.9,14.9,0,0,1,1134.31,1023.63Z" transform="translate(-1058.4 -952.1)"/></svg>