<svg id="Layer_1" data-name="Layer 1" xmlns="http://www.w3.org/2000/svg" xmlns:xlink="http://www.w3.org/1999/xlink" viewBox="0 0 718 584.75"><defs><style>.cls-1{fill:url(#New_Gradient_Swatch_1);}.cls-2{fill:url(#New_Gradient_Swatch_1-2);}.cls-3{fill:url(#New_Gradient_Swatch_1-5);}.cls-4{fill:url(#New_Gradient_Swatch_1-12);}</style><linearGradient id="New_Gradient_Swatch_1" x1="564.06" y1="729.8" x2="1407.8" y2="729.8" gradientUnits="userSpaceOnUse"><stop offset="0" stop-color="#875159"/><stop offset="1" stop-color="#202536"/></linearGradient><linearGradient id="New_Gradient_Swatch_1-2" x1="564.06" y1="1067.62" x2="1407.8" y2="1067.62" xlink:href="#New_Gradient_Swatch_1"/><linearGradient id="New_Gradient_Swatch_1-5" x1="-76.94" y1="104.69" x2="766.8" y2="104.69" xlink:href="#New_Gradient_Swatch_1"/><linearGradient id="New_Gradient_Swatch_1-12" x1="-76.94" y1="68.48" x2="766.8" y2="68.48" xlink:href="#New_Gradient_Swatch_1"/></defs><title>logo</title><path class="cls-1" d="M723.49,743.26l-7.59-30.33a7,7,0,0,0-6.8-5.31H656.3a7,7,0,0,0-6.8,5.31l-7.59,30.33a7,7,0,0,0,6.8,8.71h68A7,7,0,0,0,723.49,743.26Zm-40.1,2.48a15.25,15.25,0,1,1,15.25-15.25A15.24,15.24,0,0,1,683.39,745.74Z" transform="translate(-641 -707.62)"/><path class="cls-2" d="M1000,931.25a136.38,136.38,0,1,0,136.37,136.37A136.37,136.37,0,0,0,1000,931.25Zm43.75,75.91,27-32.84c3.75-4.56,10.33-5.22,13.89-1.39l15.11,16.24c3.56,3.82,2.43,10.34-2.39,13.75l-34.7,24.62c-3.9,2.76-8.9,2.51-11.78-.58l-7.45-8C1040.6,1015.86,1040.72,1010.85,1043.75,1007.16ZM902,989.17l15.11-16.24c3.56-3.83,10.14-3.17,13.89,1.39l27,32.84c3,3.69,3.15,8.7.27,11.79l-7.45,8c-2.87,3.09-7.88,3.34-11.78.58l-34.7-24.62C899.55,999.51,898.42,993,902,989.17Zm-17,98c-5.85.78-11.12-3.22-11.12-8.45v-22.17c0-5.23,5.27-9.23,11.12-8.45l42.17,5.62c4.73.63,8.23,4.22,8.23,8.45v10.93c0,4.23-3.5,7.82-8.23,8.45Zm76.46,45.42L938,1168.05c-3.26,4.93-9.74,6.26-13.68,2.82l-16.7-14.58c-3.94-3.44-3.49-10,.94-13.93l32-28.08c3.59-3.15,8.6-3.42,11.78-.64l8.23,7.19C963.69,1123.61,964.09,1128.6,961.46,1132.58Zm49.12,64.24H988.4c-5.23,0-9.23-5.27-8.45-11.12l5.62-42.17c.63-4.73,4.23-8.23,8.45-8.23H1005c4.23,0,7.82,3.5,8.45,8.23l5.62,42.17C1019.8,1191.55,1015.8,1196.82,1010.58,1196.82ZM981.7,1071.05a18.46,18.46,0,1,1,15.9,15.9A18.47,18.47,0,0,1,981.7,1071.05Zm38.35-119.45-5.62,42.17c-.63,4.73-4.23,8.23-8.45,8.23H995.05c-4.23,0-7.82-3.5-8.45-8.23L981,951.6c-.78-5.85,3.22-11.12,8.44-11.12h22.18C1016.83,940.48,1020.83,945.75,1020.05,951.6Zm76.68,198.48-16.2,15.15c-3.82,3.57-10.34,2.46-13.76-2.35l-24.71-34.64c-2.77-3.88-2.54-8.89.55-11.78l8-7.46c3.09-2.89,8.1-2.79,11.79.23l32.92,27C1099.87,1139.93,1100.54,1146.51,1096.73,1150.08Zm17.25-62.92-42.18-5.62c-4.73-.63-8.23-4.22-8.23-8.45v-10.93c0-4.23,3.5-7.82,8.23-8.45l42.18-5.62c5.85-.78,11.11,3.22,11.11,8.45v22.17C1125.09,1083.94,1119.83,1087.94,1114,1087.16Z" transform="translate(-641 -707.62)"/><path class="cls-2" d="M741.15,1271.26h-39a40,40,0,0,1-40-40V904a40,40,0,0,1,40-40h39a10.56,10.56,0,0,0,10.56-10.56h0a10.56,10.56,0,0,0-10.56-10.56H681a40,40,0,0,0-40,40v369.5a40,40,0,0,0,40,40h60.15a10.56,10.56,0,0,0,10.56-10.56h0A10.56,10.56,0,0,0,741.15,1271.26Z" transform="translate(-641 -707.62)"/><path class="cls-2" d="M1253.51,853.43h0A10.55,10.55,0,0,0,1264.06,864h33.82a40,40,0,0,1,40,40v327.27a40,40,0,0,1-40,40h-33.82a10.55,10.55,0,0,0-10.55,10.56h0a10.55,10.55,0,0,0,10.55,10.56H1319a40,40,0,0,0,40-40V882.87a40,40,0,0,0-40-40h-54.94A10.55,10.55,0,0,0,1253.51,853.43Z" transform="translate(-641 -707.62)"/><polygon class="cls-3" points="424.29 94.13 433.34 115.25 462.9 115.25 453.85 94.13 424.29 94.13"/><polygon class="cls-3" points="467.43 94.13 476.48 115.25 506.04 115.25 496.99 94.13 467.43 94.13"/><path class="cls-3" d="M651.56,801.75a10.56,10.56,0,1,0,0,21.12h409.2l-9-21.12Z" transform="translate(-641 -707.62)"/><polygon class="cls-3" points="596.85 94.13 605.9 115.25 635.46 115.25 626.41 94.13 596.85 94.13"/><path class="cls-3" d="M1348.44,801.75H1281l9,21.12h58.4a10.56,10.56,0,0,0,0-21.12Z" transform="translate(-641 -707.62)"/><polygon class="cls-3" points="510.57 94.13 519.62 115.25 549.18 115.25 540.13 94.13 510.57 94.13"/><polygon class="cls-3" points="553.71 94.13 562.76 115.25 592.32 115.25 583.27 94.13 553.71 94.13"/><polygon class="cls-4" points="519.62 57.92 510.57 79.04 540.13 79.04 549.18 57.92 519.62 57.92"/><polygon class="cls-4" points="476.48 57.92 467.43 79.04 496.99 79.04 506.04 57.92 476.48 57.92"/><polygon class="cls-4" points="433.34 57.92 424.29 79.04 453.85 79.04 462.9 57.92 433.34 57.92"/><path class="cls-4" d="M651.56,765.55a10.56,10.56,0,0,0,0,21.12h400.15l9-21.12Z" transform="translate(-641 -707.62)"/><polygon class="cls-4" points="562.76 57.92 553.71 79.04 583.27 79.04 592.32 57.92 562.76 57.92"/><path class="cls-4" d="M1348.44,765.55H1290l-9,21.12h67.45a10.56,10.56,0,0,0,0-21.12Z" transform="translate(-641 -707.62)"/><polygon class="cls-4" points="605.9 57.92 596.85 79.04 626.41 79.04 635.46 57.92 605.9 57.92"/></svg>